<svg preserveAspectRatio="none" width="100%" height="100%" overflow="visible" style="display: block;" viewBox="0 0 126.559 17.61" fill="none" xmlns="http://www.w3.org/2000/svg">
<g id="chrombites.">
<path d="M9.99214 13.62C9.61214 14.42 8.99214 15.06 8.13214 15.54C7.27214 16 6.31214 16.23 5.25214 16.23C5.11214 16.23 4.88214 16.21 4.56214 16.17C4.24214 16.13 3.88214 16.05 3.48214 15.93C3.10214 15.81 2.70214 15.65 2.28214 15.45C1.88214 15.23 1.51214 14.95 1.17214 14.61C0.832143 14.25 0.552143 13.82 0.332143 13.32C0.112143 12.82 0.00214287 12.23 0.00214287 11.55C-0.0178572 10.65 0.102143 9.83 0.362143 9.09C0.642143 8.35 1.08214 7.6 1.68214 6.84L2.64214 5.61C3.76214 4.85 5.02214 4.47 6.42214 4.47C7.18214 4.47 7.78214 4.61 8.22214 4.89C8.68214 5.17 8.91214 5.57 8.91214 6.09C8.91214 6.49 8.76214 6.82 8.46214 7.08C8.18214 7.32 7.81214 7.44 7.35214 7.44C7.33214 7.44 7.25214 7.43 7.11214 7.41C6.99214 7.37 6.85214 7.33 6.69214 7.29C6.53214 7.25 6.37214 7.22 6.21214 7.2C6.05214 7.16 5.92214 7.14 5.82214 7.14C5.36214 7.14 4.83214 7.38 4.23214 7.86C3.65214 8.34 3.19214 9.1 2.85214 10.14C2.71214 10.58 2.64214 10.94 2.64214 11.22C2.64214 11.78 2.79214 12.22 3.09214 12.54C3.41214 12.86 3.76214 13.11 4.14214 13.29C4.52214 13.45 4.87214 13.56 5.19214 13.62C5.51214 13.66 5.68214 13.68 5.70214 13.68C5.98214 13.68 6.26214 13.6 6.54214 13.44C6.82214 13.28 7.07214 13.1 7.29214 12.9C7.53214 12.7 7.72214 12.53 7.86214 12.39C8.00214 12.23 8.06214 12.15 8.04214 12.15C8.24214 11.97 8.47214 11.88 8.73214 11.88C9.05214 11.88 9.34214 12.05 9.60214 12.39C9.88214 12.71 10.0221 13.04 10.0221 13.38C10.0221 13.48 10.0121 13.56 9.99214 13.62Z" fill="var(--fill-0, #302013)"/>
<path d="M22.1649 15.21C22.0649 15.49 21.8649 15.77 21.5649 16.05C21.2649 16.33 20.9749 16.47 20.6949 16.47C20.1149 16.47 19.7349 16.06 19.5549 15.24C19.3749 14.42 19.2849 13.26 19.2849 11.76V11.49C19.2849 10.73 19.2249 10.18 19.1049 9.84C19.0049 9.48 18.9349 9.25 18.8949 9.15C18.6749 8.67 18.3349 8.43 17.8749 8.43C17.5949 8.43 17.3049 8.49 17.0049 8.61C16.7049 8.71 16.4349 8.84 16.1949 9C15.9549 9.14 15.7449 9.28 15.5649 9.42C15.4049 9.56 15.3049 9.66 15.2649 9.72C15.2249 9.86 15.1849 10.1 15.1449 10.44C15.1249 10.78 15.1049 11.17 15.0849 11.61C15.0649 12.05 15.0449 12.5 15.0249 12.96C15.0049 13.42 14.9849 13.84 14.9649 14.22C14.9649 14.6 14.9649 14.9 14.9649 15.12C14.9649 15.34 14.9749 15.43 14.9949 15.39C14.9349 15.93 14.5049 16.2 13.7049 16.2C13.1049 16.2 12.7149 16.01 12.5349 15.63C12.3749 15.25 12.2949 14.6 12.2949 13.68C12.2949 13.44 12.2949 13.3 12.2949 13.26C12.3149 13.22 12.3349 13.13 12.3549 12.99C12.3749 12.83 12.4049 12.55 12.4449 12.15C12.4849 11.75 12.5349 11.07 12.5949 10.11C12.6149 9.71 12.6349 9.35 12.6549 9.03C12.6749 8.69 12.6749 8.4 12.6549 8.16C12.6549 7.94 12.6549 7.76 12.6549 7.62C12.6549 7.46 12.6449 7.33 12.6249 7.23C12.6449 7.17 12.6649 6.98 12.6849 6.66C12.7249 6.34 12.7549 5.99 12.7749 5.61C12.8149 5.23 12.8549 4.87 12.8949 4.53C12.9349 4.19 12.9749 3.96 13.0149 3.84C13.0149 3.16991 12.9008 3.35515 13.062 2.71C13.182 2.23 13.362 1.83 13.602 1.51C13.862 1.17 14.2221 1 14.6821 1C16.0315 1 15.8416 2.43079 15.7149 3.03C15.6749 3.57 15.6249 3.99 15.5649 4.29C15.5249 4.59 15.4849 4.85 15.4449 5.07C15.4049 5.29 15.3749 5.5 15.3549 5.7C15.3349 5.9 15.3249 6.18 15.3249 6.54C15.8249 6.12 16.3049 5.88 16.7649 5.82C17.2249 5.74 17.6549 5.7 18.0549 5.7C19.0549 5.7 19.8549 5.99 20.4549 6.57C21.0549 7.15 21.5049 8.11 21.8049 9.45C21.8249 9.93 21.8349 10.31 21.8349 10.59C21.8549 10.85 21.8749 11.15 21.8949 11.49C21.9349 11.81 21.9749 12.25 22.0149 12.81C22.0549 13.37 22.1049 14.17 22.1649 15.21Z" fill="var(--fill-0, #302013)"/>
<path d="M33.544 6.3C33.864 6.5 34.024 6.88 34.024 7.44C34.024 7.86 33.914 8.22 33.694 8.52C33.474 8.82 33.174 8.97 32.794 8.97C32.554 8.97 32.304 8.91 32.044 8.79C31.804 8.65 31.544 8.58 31.264 8.58C31.024 8.58 30.784 8.63 30.544 8.73C30.324 8.81 30.064 9 29.764 9.3L28.864 10.2C28.864 10.34 28.864 10.48 28.864 10.62C28.884 10.76 28.894 10.91 28.894 11.07C28.894 11.31 28.884 11.56 28.864 11.82C28.864 12.08 28.854 12.36 28.834 12.66L29.104 15.39C29.044 16.31 28.574 16.77 27.694 16.77C27.234 16.77 26.894 16.63 26.674 16.35C26.454 16.05 26.304 15.64 26.224 15.12C26.144 14.6 26.104 13.99 26.104 13.29C26.124 12.59 26.124 11.82 26.104 10.98C26.064 9.72 26.034 9.09 26.014 9.09V9.12C25.934 8.82 25.874 8.56 25.834 8.34C25.794 8.1 25.774 7.89 25.774 7.71C25.774 7.35 25.904 7.06 26.164 6.84C26.424 6.6 26.804 6.48 27.304 6.48C27.624 6.48 28.004 6.73 28.444 7.23C28.904 6.87 29.254 6.6 29.494 6.42C29.754 6.24 29.964 6.11 30.124 6.03C30.304 5.95 30.474 5.91 30.634 5.91C30.794 5.89 31.004 5.88 31.264 5.88C31.484 5.86 31.684 5.87 31.864 5.91C32.064 5.95 32.274 5.99 32.494 6.03L33.544 6.3Z" fill="var(--fill-0, #302013)"/>
<path d="M43.3491 15.75C43.0891 15.93 42.6691 16.11 42.0891 16.29C41.5091 16.45 40.9091 16.59 40.2891 16.71L39.0591 16.47C38.8791 16.41 38.5791 16.27 38.1591 16.05C37.7591 15.83 37.3491 15.5 36.9291 15.06C36.5091 14.6 36.1391 14.02 35.8191 13.32C35.4991 12.6 35.3391 11.73 35.3391 10.71C35.3391 10.35 35.4191 9.93 35.5791 9.45C35.7591 8.95 36.0191 8.49 36.3591 8.07C36.6991 7.63 37.1191 7.26 37.6191 6.96C38.1391 6.66 38.7391 6.51 39.4191 6.51C40.7791 6.51 42.0091 6.95 43.1091 7.83C44.0691 9.15 44.5491 10.61 44.5491 12.21C44.5491 13.39 44.1491 14.57 43.3491 15.75ZM41.8791 11.49C41.7791 10.71 41.5291 10.1 41.1291 9.66C40.7491 9.2 40.2591 8.97 39.6591 8.97C39.2591 8.97 38.8791 9.17 38.5191 9.57C38.1791 9.95 38.0091 10.51 38.0091 11.25C38.0091 11.55 38.0491 11.87 38.1291 12.21C38.2091 12.53 38.3391 12.83 38.5191 13.11C38.6991 13.37 38.9291 13.59 39.2091 13.77C39.4891 13.93 39.8291 14.01 40.2291 14.01C40.8691 14.01 41.3091 13.82 41.5491 13.44C41.7891 13.04 41.9091 12.55 41.9091 11.97C41.9091 11.89 41.8991 11.82 41.8791 11.76C41.8791 11.68 41.8791 11.59 41.8791 11.49Z" fill="var(--fill-0, #302013)"/>
<path d="M64.5554 14.79C64.5554 15.05 64.4053 15.27 64.1053 15.45C63.8253 15.61 63.5153 15.69 63.1753 15.69C62.7753 15.69 62.4753 15.56 62.2753 15.3C62.0953 15.04 61.9653 14.71 61.8853 14.31C61.8053 13.89 61.7553 13.43 61.7353 12.93C61.7353 12.43 61.7253 11.95 61.7053 11.49C61.6653 11.35 61.6153 11.15 61.5553 10.89C61.4953 10.63 61.4453 10.3 61.4053 9.9C60.8653 9.3 60.2153 9 59.4553 9C59.1753 9 58.8953 9.03 58.6153 9.09C58.3353 9.13 58.0753 9.24 57.8353 9.42C57.5953 9.58 57.3753 9.83 57.1753 10.17C56.9753 10.51 56.8153 10.97 56.6953 11.55C56.7153 11.65 56.7253 11.83 56.7253 12.09C56.7253 12.31 56.7053 12.58 56.6653 12.9C56.6453 13.2 56.6153 13.55 56.5753 13.95V14.1C56.5753 14.18 56.5753 14.38 56.5753 14.7C56.5753 15 56.5353 15.32 56.4553 15.66C56.3753 15.98 56.2253 16.27 56.0053 16.53C55.8053 16.79 55.5053 16.92 55.1053 16.92C54.7453 16.92 54.4253 16.81 54.1453 16.59C53.8653 16.39 53.7253 16.14 53.7253 15.84C53.7253 15.8 53.7353 15.65 53.7553 15.39C53.7953 15.13 53.8353 14.84 53.8753 14.52C53.9353 14.18 53.9753 13.85 53.9953 13.53C54.0353 13.19 54.0553 12.92 54.0553 12.72C54.0553 12.38 54.0253 12.04 53.9653 11.7V11.31C53.9653 10.29 53.7653 9.33 53.3653 8.43C53.0653 8.19 52.5953 8.03 51.9553 7.95C51.8353 7.99 51.6853 8.05 51.5053 8.13C51.3253 8.21 51.1453 8.38 50.9653 8.64C50.7853 8.88 50.6253 9.23 50.4853 9.69C50.3453 10.15 50.2453 10.77 50.1853 11.55L50.0953 12.78C50.2153 13.38 50.2753 13.9 50.2753 14.34C50.2753 14.86 50.1853 15.28 50.0053 15.6C49.8453 15.9 49.4753 16.05 48.8953 16.05C48.5953 16.05 48.3453 16.02 48.1453 15.96C47.9653 15.88 47.8153 15.72 47.6953 15.48C47.5953 15.22 47.5253 14.85 47.4853 14.37C47.4453 13.87 47.4253 13.21 47.4253 12.39C47.4253 11.73 47.4653 11.09 47.5453 10.47C47.6253 9.83 47.7453 9.01 47.9053 8.01C47.8453 7.67 47.7553 7.36 47.6353 7.08C47.5353 6.78 47.4853 6.55 47.4853 6.39C47.4853 6.05 47.6353 5.75 47.9353 5.49C48.2353 5.23 48.5853 5.1 48.9853 5.1C49.2853 5.1 49.5553 5.19 49.7953 5.37L50.3053 6.03C50.5453 5.83 50.7553 5.68 50.9353 5.58C51.1153 5.46 51.2753 5.37 51.4153 5.31C51.5553 5.25 51.6953 5.22 51.8353 5.22C51.9753 5.2 52.1353 5.19 52.3153 5.19C52.5753 5.19 52.7753 5.19 52.9153 5.19C53.0753 5.19 53.2353 5.22 53.3953 5.28C53.5553 5.34 53.7353 5.44 53.9353 5.58C54.1553 5.7 54.4553 5.89 54.8353 6.15C55.0753 6.31 55.3953 6.83 55.7953 7.71L55.9753 7.5C56.1353 7.36 56.3553 7.22 56.6353 7.08C56.9153 6.94 57.2153 6.82 57.5353 6.72C57.8753 6.6 58.2153 6.51 58.5553 6.45C58.9153 6.37 59.2353 6.33 59.5153 6.33C60.1753 6.33 60.7453 6.4 61.2253 6.54C61.7053 6.66 62.1153 6.85 62.4553 7.11C62.7953 7.35 63.0953 7.67 63.3553 8.07C63.6153 8.45 63.8653 8.89 64.1053 9.39V9.6C64.1053 9.76 64.1253 10.05 64.1653 10.47C64.2053 10.89 64.2453 11.31 64.2853 11.73C64.3253 12.15 64.3653 12.52 64.4053 12.84C64.4453 13.14 64.4653 13.27 64.4653 13.23C64.4653 13.25 64.4653 13.32 64.4653 13.44C64.4853 13.54 64.4953 13.67 64.4953 13.83C64.5153 13.97 64.5253 14.12 64.5253 14.28C64.5453 14.42 64.5554 14.53 64.5554 14.61V14.79Z" fill="var(--fill-0, #302013)"/>
<path d="M77.2608 7.86C77.7408 8.8 77.9808 9.66 77.9808 10.44C77.9808 11.02 77.8508 11.61 77.5908 12.21L76.9608 13.65L76.0308 14.64C75.3908 15.34 74.7608 15.8 74.1408 16.02C73.5208 16.22 73.0208 16.32 72.6408 16.32C72.1608 16.32 71.6708 16.17 71.1708 15.87C70.9108 16.09 70.6208 16.2 70.3008 16.2C69.9408 16.2 69.5108 16.06 69.0108 15.78C69.0308 15.58 69.0408 15.36 69.0408 15.12C69.0408 14.88 69.0408 14.62 69.0408 14.34C69.0408 14.18 69.0308 14.03 69.0108 13.89C68.9908 13.75 68.9708 13.57 68.9508 13.35C68.9308 13.11 68.9108 12.8 68.8908 12.42C68.8708 12.04 68.8508 11.54 68.8308 10.92C68.8108 10.28 68.7708 9.78 68.7108 9.42C68.6508 9.04 68.5908 8.8 68.5308 8.7C68.4308 8.02 68.3408 7.33 68.2608 6.63C68.1808 5.93 68.1008 5.28 68.0208 4.68C67.9408 4.06 67.9808 3.71 67.9008 3.23C67.8208 2.75 67.7408 2.39 67.6608 2.15C67.6608 1.69 67.7708 1.3 67.9908 0.979999C68.2108 0.66 68.5108 0.5 68.8908 0.5C69.0908 0.5 69.2808 0.53 69.4608 0.590001C69.6408 0.65 69.8008 0.77 69.9408 0.95C70.1008 1.13 70.2408 1.38 70.3608 1.7C70.4808 2.02 70.5708 2.44 70.6308 2.96C70.6908 3.46 70.6108 3.61 70.6308 3.81C70.6708 4.01 70.7008 4.21 70.7208 4.41C70.7608 4.61 70.8008 4.89 70.8408 5.25C70.8808 5.61 70.9508 6.2 71.0508 7.02C71.4108 6.82 71.7208 6.66 71.9808 6.54C72.2608 6.4 72.5208 6.29 72.7608 6.21C73.0008 6.13 73.2408 6.08 73.4808 6.06C73.7408 6.04 74.0408 6.03 74.3808 6.03C74.7608 6.03 75.1008 6.09 75.4008 6.21C75.7208 6.33 75.9908 6.48 76.2108 6.66C76.4508 6.84 76.6508 7.04 76.8108 7.26C76.9908 7.46 77.1408 7.66 77.2608 7.86ZM75.1608 11.4C75.2608 10.84 75.3108 10.47 75.3108 10.29C75.3108 10.19 75.2808 10.05 75.2208 9.87C75.1608 9.67 75.0708 9.48 74.9508 9.3C74.8508 9.12 74.7208 8.96 74.5608 8.82C74.4008 8.68 74.2108 8.61 73.9908 8.61C73.6508 8.61 73.2608 8.74 72.8208 9C72.3808 9.26 71.9408 9.52 71.5008 9.78L71.6808 12.96C71.8208 13.46 72.0808 13.71 72.4608 13.71C72.6608 13.71 72.9008 13.65 73.1808 13.53C73.4608 13.41 73.7308 13.25 73.9908 13.05C74.2708 12.83 74.5208 12.58 74.7408 12.3C74.9608 12.02 75.1008 11.72 75.1608 11.4Z" fill="var(--fill-0, #302013)"/>
<path d="M85.2975 2.37C85.3375 2.53 85.3575 2.68 85.3575 2.82C85.3575 3.46 85.1675 4 84.7875 4.44C84.1875 4.68 83.5875 4.8 82.9875 4.8C82.6075 4.56 82.2875 4.29 82.0275 3.99C81.7875 3.67 81.6675 3.36 81.6675 3.06C81.6675 2.8 81.9675 2.16 82.5675 1.14C82.8275 1.18 83.0975 1.21 83.3775 1.23C83.6775 1.25 83.9475 1.3 84.1875 1.38C84.4475 1.46 84.6675 1.58 84.8475 1.74C85.0475 1.88 85.1975 2.09 85.2975 2.37ZM84.3375 7.38V7.77C84.3375 7.87 84.3375 7.98 84.3375 8.1C84.3375 8.22 84.3175 8.33 84.2775 8.43L84.0375 9.78V10.05C84.0375 10.17 84.0275 10.33 84.0075 10.53C83.9875 10.73 83.9575 10.93 83.9175 11.13C83.8975 11.33 83.8775 11.52 83.8575 11.7C83.8375 11.88 83.8275 12.03 83.8275 12.15C83.8275 12.25 83.8275 12.33 83.8275 12.39C83.8475 12.45 83.8575 12.53 83.8575 12.63C83.8575 12.81 83.8375 13.01 83.7975 13.23C83.7575 13.43 83.7375 13.66 83.7375 13.92C83.7375 14.16 83.7675 14.41 83.8275 14.67C83.6075 15.57 83.1475 16.02 82.4475 16.02C81.4675 16.02 80.9775 15.1 80.9775 13.26C80.9775 12.64 81.0075 12.03 81.0675 11.43C81.1275 10.81 81.1975 10.24 81.2775 9.72C81.3575 9.2 81.4375 8.75 81.5175 8.37C81.6175 7.97 81.6975 7.66 81.7575 7.44C82.0575 7 82.4775 6.78 83.0175 6.78C83.5375 6.78 83.9775 6.98 84.3375 7.38Z" fill="var(--fill-0, #302013)"/>
<path d="M95.9353 5.19C96.1553 5.37 96.2653 5.7 96.2653 6.18C96.2653 7.06 95.9353 7.5 95.2753 7.5H95.1553C94.8553 7.52 94.5053 7.55 94.1053 7.59C93.7053 7.61 93.2553 7.65 92.7553 7.71C92.7153 8.03 92.6753 8.46 92.6353 9C92.5953 9.52 92.5753 10.15 92.5753 10.89C92.5753 10.95 92.5753 11.01 92.5753 11.07C92.5953 11.13 92.6053 11.2 92.6053 11.28V12.66C92.6053 12.98 92.6553 13.24 92.7553 13.44C92.8753 13.62 93.0153 13.75 93.1753 13.83L94.0153 14.1C94.6753 14.32 95.0053 14.72 95.0053 15.3C95.0053 15.64 94.8653 15.94 94.5853 16.2C94.3253 16.46 93.9853 16.59 93.5653 16.59C93.4453 16.59 93.2353 16.56 92.9353 16.5C92.6553 16.42 92.3553 16.32 92.0353 16.2C91.7353 16.08 91.4453 15.93 91.1653 15.75C90.9053 15.57 90.7253 15.37 90.6253 15.15C90.4053 14.69 90.2253 14.21 90.0853 13.71C89.9453 13.19 89.8753 12.65 89.8753 12.09C89.8753 11.47 89.8853 11.03 89.9053 10.77C89.9253 10.51 89.9453 10.28 89.9653 10.08C89.9853 9.88 90.0053 9.64 90.0253 9.36C90.0453 9.08 90.0553 8.62 90.0553 7.98C89.6753 8.02 89.1153 8.14 88.3753 8.34C87.9353 8.34 87.5553 8.23 87.2353 8.01C86.9353 7.77 86.7853 7.46 86.7853 7.08C86.7853 6.8 86.8653 6.54 87.0253 6.3C87.2053 6.06 87.5653 5.85 88.1053 5.67C88.2853 5.61 88.4453 5.57 88.5853 5.55C88.7453 5.53 88.8953 5.51 89.0353 5.49C89.1953 5.47 89.3653 5.46 89.5453 5.46C89.7253 5.44 89.9453 5.41 90.2053 5.37C90.2253 4.87 90.2553 4.31 90.2953 3.69C90.3553 3.05 90.4453 2.46 90.5653 1.92C90.7053 1.38 90.8953 0.93 91.1353 0.57C91.3953 0.19 91.7353 0 92.1553 0C92.8753 0 93.3153 0.33 93.4753 0.99C93.4753 1.01 93.4453 1.15 93.3853 1.41C93.3453 1.65 93.2953 1.92 93.2353 2.22C93.1753 2.52 93.1153 2.81 93.0553 3.09C93.0153 3.37 92.9953 3.55 92.9953 3.63L92.9053 5.1C93.0453 5.08 93.1753 5.07 93.2953 5.07C93.4153 5.05 93.5453 5.04 93.6853 5.04H93.9553C94.0953 5.04 94.2253 5.04 94.3453 5.04C94.4653 5.02 94.5753 5.01 94.6753 5.01C95.2753 5.01 95.6953 5.07 95.9353 5.19Z" fill="var(--fill-0, #302013)"/>
<path d="M108.136 15.3C107.496 15.94 106.776 16.48 105.976 16.92C105.176 17.38 104.366 17.61 103.546 17.61C102.806 17.61 101.856 17.49 100.696 17.25C100.296 16.99 99.8957 16.68 99.4957 16.32C99.0957 15.94 98.7357 15.53 98.4157 15.09C98.0957 14.63 97.8357 14.14 97.6357 13.62C97.4357 13.08 97.3357 12.53 97.3357 11.97C97.3357 11.81 97.3457 11.6 97.3657 11.34C97.3857 11.06 97.4057 10.79 97.4257 10.53C97.4657 10.25 97.4957 10.01 97.5157 9.81C97.5357 9.61 97.5457 9.51 97.5457 9.51C97.9457 8.87 98.3657 8.24 98.8057 7.62C99.2657 6.98 99.9057 6.42 100.726 5.94C102.026 5.66 102.966 5.52 103.546 5.52C103.846 5.52 104.106 5.54 104.326 5.58C104.546 5.6 104.756 5.66 104.956 5.76C105.176 5.84 105.386 5.97 105.586 6.15C105.806 6.33 106.056 6.56 106.336 6.84C106.656 7.18 106.906 7.41 107.086 7.53C107.286 7.65 107.386 7.76 107.386 7.86C107.386 9.7 106.816 10.95 105.676 11.61C105.176 11.79 104.526 11.99 103.726 12.21C102.926 12.41 101.836 12.6 100.456 12.78C100.736 13.54 101.106 14.11 101.566 14.49C102.026 14.87 102.546 15.06 103.126 15.06C103.986 15.06 105.066 14.55 106.366 13.53C106.566 13.35 106.816 13.26 107.116 13.26C107.436 13.26 107.716 13.38 107.956 13.62C108.216 13.86 108.346 14.16 108.346 14.52C108.346 14.78 108.276 15.04 108.136 15.3ZM104.746 8.88C104.366 8.26 103.916 7.95 103.396 7.95C103.176 7.95 102.936 7.98 102.676 8.04C102.416 8.1 102.146 8.19 101.866 8.31C101.606 8.41 101.356 8.54 101.116 8.7C100.896 8.86 100.716 9.05 100.576 9.27L100.276 10.17C100.956 10.11 101.556 10.06 102.076 10.02C102.596 9.98 103.046 9.92 103.426 9.84C103.806 9.76 104.106 9.65 104.326 9.51C104.546 9.37 104.686 9.16 104.746 8.88Z" fill="var(--fill-0, #302013)"/>
<path d="M118.832 13.05C118.772 13.67 118.562 14.24 118.202 14.76C117.862 15.26 117.512 15.77 117.152 16.29C116.932 16.47 116.612 16.62 116.192 16.74C115.792 16.88 115.392 16.99 114.992 17.07C114.592 17.15 114.242 17.21 113.942 17.25C113.662 17.29 113.542 17.31 113.582 17.31C113.382 17.31 113.122 17.27 112.802 17.19C112.502 17.13 112.202 17.06 111.902 16.98C111.622 16.92 111.382 16.85 111.182 16.77C111.002 16.71 110.922 16.68 110.942 16.68C110.762 16.66 110.532 16.6 110.252 16.5C109.972 16.38 109.702 16.25 109.442 16.11C109.202 15.95 108.992 15.79 108.812 15.63C108.612 15.45 108.512 15.28 108.512 15.12C108.512 14.96 108.552 14.8 108.632 14.64C108.712 14.46 108.822 14.3 108.962 14.16C109.102 14 109.242 13.88 109.382 13.8C109.542 13.7 109.702 13.65 109.862 13.65L111.932 14.43C112.312 14.55 112.682 14.64 113.042 14.7C113.422 14.74 113.792 14.76 114.152 14.76C114.492 14.76 114.792 14.7 115.052 14.58C115.332 14.44 115.542 14.28 115.682 14.1L116.132 13.2C116.092 12.84 115.942 12.56 115.682 12.36C115.442 12.16 115.132 11.99 114.752 11.85C114.392 11.71 114.002 11.58 113.582 11.46C113.162 11.34 112.772 11.18 112.412 10.98L111.122 10.17C110.702 9.63 110.482 8.8 110.462 7.68C110.582 6.98 110.882 6.42 111.362 6C111.382 5.98 111.512 5.89 111.752 5.73C111.992 5.55 112.362 5.3 112.862 4.98C112.942 4.98 113.192 4.96 113.612 4.92C114.052 4.88 114.652 4.82 115.412 4.74C115.752 4.74 116.582 4.98 117.902 5.46C118.162 5.72 118.292 6.08 118.292 6.54C118.292 6.9 118.202 7.21 118.022 7.47C117.862 7.71 117.622 7.83 117.302 7.83C116.962 7.83 116.582 7.75 116.162 7.59C115.762 7.41 115.382 7.32 115.022 7.32C114.522 7.32 114.062 7.37 113.642 7.47C113.242 7.55 113.042 7.75 113.042 8.07C113.042 8.53 113.242 8.81 113.642 8.91C116.702 9.59 118.432 10.97 118.832 13.05Z" fill="var(--fill-0, #302013)"/>
<path d="M126.559 15.6C126.559 15.78 126.499 15.96 126.379 16.14C126.279 16.32 126.139 16.47 125.959 16.59C125.799 16.73 125.609 16.84 125.389 16.92C125.189 17.02 124.999 17.07 124.819 17.07C124.339 17.07 123.949 17 123.649 16.86C123.349 16.74 123.119 16.58 122.959 16.38C122.819 16.18 122.719 15.97 122.659 15.75C122.619 15.51 122.599 15.29 122.599 15.09C122.599 14.85 122.639 14.61 122.719 14.37C122.819 14.11 122.949 13.88 123.109 13.68C123.269 13.48 123.459 13.32 123.679 13.2C123.899 13.06 124.149 12.99 124.429 12.99C124.609 12.99 124.819 13.01 125.059 13.05C125.319 13.09 125.559 13.2 125.779 13.38C125.999 13.56 126.179 13.83 126.319 14.19C126.479 14.53 126.559 15 126.559 15.6Z" fill="var(--fill-0, #302013)"/>
</g>
</svg>
