<svg preserveAspectRatio="none" width="100%" height="100%" overflow="visible" style="display: block;" viewBox="0 0 2.53209 46" fill="none" xmlns="http://www.w3.org/2000/svg">
<path id="Vector 16" d="M2.35928 1C2.35928 0.447715 1.91156 0 1.35928 0C0.806993 0 0.359277 0.447715 0.359277 1H1.35928H2.35928ZM1.35928 1.1L2.35817 1.14701C2.35891 1.13135 2.35928 1.11568 2.35928 1.1H1.35928ZM1.3663 23.35L2.34406 23.1403V23.1403L1.3663 23.35ZM1.29929 29.31L0.321124 29.5178L1.29929 29.31ZM1.49215 43.86L0.496912 43.7625L1.49215 43.86ZM1.3699 45L0.375491 45.1056C0.429503 45.6142 0.858498 46 1.3699 46V45ZM1.35928 44.9L2.35368 44.7944C2.29752 44.2656 1.83739 43.8733 1.3064 43.9014C0.775405 43.9295 0.359277 44.3683 0.359277 44.9H1.35928ZM0.359277 45C0.359277 45.5523 0.806993 46 1.35928 46C1.91156 46 2.35928 45.5523 2.35928 45H1.35928H0.359277ZM1.35928 1H0.359277V1.1H1.35928H2.35928V1H1.35928ZM1.35928 1.1L0.360383 1.05299C0.269957 2.97438 0.209049 4.43745 0.177948 5.43896L1.17747 5.47L2.17698 5.50104C2.20758 4.51588 2.26788 3.06562 2.35817 1.14701L1.35928 1.1ZM1.17747 5.47L0.177948 5.43896C0.146286 6.45856 0.154812 7.47817 0.203523 8.49772L1.20238 8.45L2.20124 8.40228C2.15504 7.43516 2.14695 6.4681 2.17698 5.50104L1.17747 5.47ZM1.20238 8.45L0.203523 8.49772C0.249362 9.45718 0.246371 10.4166 0.194546 11.3761L1.19309 11.43L2.19163 11.4839C2.24712 10.4568 2.25032 9.42949 2.20124 8.40228L1.20238 8.45ZM1.19309 11.43L0.194546 11.3761C0.13895 12.4054 0.139003 13.4347 0.194705 14.464L1.19324 14.41L2.19178 14.356C2.13997 13.3986 2.13992 12.4413 2.19163 11.4839L1.19309 11.43ZM1.19324 14.41L0.194705 14.464C0.245638 15.4052 0.222991 16.3465 0.126658 17.2882L1.12147 17.39L2.11628 17.4918C2.22316 16.4469 2.24836 15.4014 2.19178 14.356L1.19324 14.41ZM1.12147 17.39L0.126658 17.2882C0.0207301 18.3238 -0.0187787 19.3598 0.00822151 20.396L1.00788 20.37L2.00754 20.344C1.98278 19.3935 2.01899 18.4428 2.11628 17.4918L1.12147 17.39ZM1.00788 20.37L0.00822151 20.396C0.0357499 21.4525 0.162807 22.5073 0.388533 23.5597L1.3663 23.35L2.34406 23.1403C2.14367 22.206 2.03178 21.2741 2.00754 20.344L1.00788 20.37ZM1.3663 23.35L0.388533 23.5597C0.570347 24.4074 0.561524 25.2506 0.361019 26.1003L1.33429 26.33L2.30756 26.5597C2.57585 25.4227 2.58836 24.2793 2.34406 23.1403L1.3663 23.35ZM1.33429 26.33L0.361019 26.1003C0.0928954 27.2366 0.0792209 28.3793 0.321124 29.5178L1.29929 29.31L2.27745 29.1022C2.09723 28.254 2.10689 27.4101 2.30756 26.5597L1.33429 26.33ZM1.29929 29.31L0.321124 29.5178C0.50758 30.3954 0.534494 31.2681 0.403476 32.1417L1.39242 32.29L2.38136 32.4383C2.54829 31.3253 2.51312 30.2113 2.27745 29.1022L1.29929 29.31ZM1.39242 32.29L0.403476 32.1417C0.247971 33.1786 0.162136 34.2163 0.146192 35.2546L1.14607 35.27L2.14596 35.2854C2.16052 34.337 2.23891 33.3881 2.38136 32.4383L1.39242 32.29ZM1.14607 35.27L0.146192 35.2546C0.130724 36.262 0.13647 37.2694 0.163429 38.2768L1.16307 38.25L2.16271 38.2233C2.1365 37.2439 2.13092 36.2646 2.14596 35.2854L1.14607 35.27ZM1.16307 38.25L0.163429 38.2768C0.190975 39.306 0.273966 40.3349 0.412291 41.3633L1.40337 41.23L2.39444 41.0967C2.26554 40.1384 2.18833 39.1806 2.16271 38.2233L1.16307 38.25ZM1.40337 41.23L0.412291 41.3633C0.538612 42.3024 0.561896 43.0989 0.496912 43.7625L1.49215 43.86L2.48739 43.9575C2.57125 43.1011 2.53534 42.1442 2.39444 41.0967L1.40337 41.23ZM1.49215 43.86L0.496912 43.7625C0.459768 44.1419 0.431339 44.4231 0.411473 44.6084C0.401432 44.702 0.394141 44.7658 0.389351 44.8039C0.386709 44.8249 0.386075 44.8279 0.387179 44.8212C0.387599 44.8186 0.388538 44.813 0.389992 44.8052C0.391246 44.7986 0.39412 44.7837 0.398722 44.7643C0.401193 44.7539 0.41327 44.7021 0.43798 44.6382C0.447902 44.6125 0.480599 44.529 0.545202 44.4347C0.577577 44.3874 0.644559 44.2977 0.754766 44.2116C0.867325 44.1238 1.0783 44 1.3699 44V45V46C1.66161 46 1.8727 45.8762 1.98538 45.7882C2.0957 45.7021 2.16281 45.6122 2.19531 45.5648C2.26016 45.4701 2.29313 45.386 2.30334 45.3596C2.32863 45.2942 2.34134 45.2401 2.34452 45.2268C2.35377 45.1879 2.3592 45.1548 2.36108 45.1432C2.36606 45.1127 2.37036 45.0801 2.37369 45.0536C2.38086 44.9967 2.38974 44.918 2.40007 44.8216C2.42096 44.6269 2.45011 44.3381 2.48739 43.9575L1.49215 43.86ZM1.3699 45L2.36431 44.8944L2.35368 44.7944L1.35928 44.9L0.36487 45.0056L0.375491 45.1056L1.3699 45ZM1.35928 44.9H0.359277V45H1.35928H2.35928V44.9H1.35928Z" fill="var(--stroke-0, #302013)"/>
</svg>
