<svg preserveAspectRatio="none" width="100%" height="100%" overflow="visible" style="display: block;" viewBox="0 0 25.8 27.5003" fill="none" xmlns="http://www.w3.org/2000/svg">
<g id="Group 9">
<path id="Vector 13" d="M18.25 8.75C17.8973 7.70948 18.0349 7.44312 17.5378 6.45656C16.7425 4.87838 16.1254 3.67429 15.8084 3.34966C14.5815 2.09316 13.3043 0.963644 11.4638 0.807111C9.80079 0.665678 7.44291 0.699729 6.18337 1.95201C3.69362 4.42739 3.16548 6.59347 1.77888 9.50154C0.420291 13.0876 0.152737 19.1608 2.55386 22.4385C4.78878 25.4893 9.21385 27.7795 12.9132 26.2014C13.5177 25.9435 14.1563 25.6244 14.7923 25.25" stroke="var(--stroke-0, #302013)" stroke-width="1.5" stroke-linecap="round" stroke-linejoin="round"/>
<path id="Vector 14" d="M16.8776 26.4109C14.9437 25.588 12.4804 23.8216 12.2444 21.5541C11.9676 18.8958 15.334 4.41959 21.3398 10.375C24.4401 13.4492 26.5334 20.1281 23.7464 23.9225C22.2645 25.94 19.3305 27.4544 16.8776 26.4109Z" stroke="var(--stroke-0, #302013)" stroke-width="1.5" stroke-linecap="round" stroke-linejoin="round"/>
</g>
</svg>
