<svg preserveAspectRatio="none" width="100%" height="100%" overflow="visible" style="display: block;" viewBox="0 0 1.96577 67.5" fill="none" xmlns="http://www.w3.org/2000/svg">
<path id="Vector 16" d="M1.76946 0.75C1.76946 0.335786 1.43367 0 1.01946 0C0.605244 0 0.269458 0.335786 0.269458 0.75H1.01946H1.76946ZM1.01946 0.85L1.76861 0.88567C1.76918 0.873788 1.76946 0.861895 1.76946 0.85H1.01946ZM0.894818 8.5725L0.145909 8.53205L0.894818 8.5725ZM0.8411 13.0425L0.0949935 12.9662L0.8411 13.0425ZM1.00072 19.7475L1.73067 19.9197L1.00072 19.7475ZM0.892793 37.6275L0.150626 37.5194L0.892793 37.6275ZM0.993083 66.1575L0.264428 66.3352L0.993083 66.1575ZM1.0785 66.75L0.432671 67.1313C0.567575 67.3598 0.813164 67.5 1.0785 67.5V66.75ZM1.01946 66.65L1.66529 66.2687C1.49339 65.9775 1.14796 65.8374 0.821812 65.9265C0.495669 66.0156 0.269458 66.3119 0.269458 66.65H1.01946ZM0.269458 66.75C0.269458 67.1642 0.605244 67.5 1.01946 67.5C1.43367 67.5 1.76946 67.1642 1.76946 66.75H1.01946H0.269458ZM1.01946 0.75H0.269458V0.85H1.01946H1.76946V0.75H1.01946ZM1.01946 0.85L0.270307 0.81433C0.202482 2.2388 0.156792 3.32791 0.133461 4.07922L0.8831 4.1025L1.63274 4.12578C1.65568 3.38709 1.70089 2.30787 1.76861 0.88567L1.01946 0.85ZM0.8831 4.1025L0.133461 4.07922C0.109714 4.84392 0.116109 5.60863 0.152642 6.37329L0.901787 6.3375L1.65093 6.30171C1.61628 5.57637 1.61022 4.85108 1.63274 4.12578L0.8831 4.1025ZM0.901787 6.3375L0.152642 6.37329C0.187021 7.09288 0.184778 7.81244 0.145909 8.53205L0.894818 8.5725L1.64373 8.61295C1.68534 7.84257 1.68774 7.07212 1.65093 6.30171L0.901787 6.3375ZM0.894818 8.5725L0.145909 8.53205C0.104212 9.30402 0.104252 10.0761 0.146029 10.848L0.894933 10.8075L1.64384 10.767C1.60498 10.0489 1.60494 9.33098 1.64373 8.61295L0.894818 8.5725ZM0.894933 10.8075L0.146029 10.848C0.184229 11.5539 0.167243 12.2599 0.0949935 12.9662L0.8411 13.0425L1.58721 13.1188C1.66737 12.3351 1.68627 11.5511 1.64384 10.767L0.894933 10.8075ZM0.8411 13.0425L0.0949935 12.9662C0.0155476 13.7429 -0.014084 14.5199 0.00616622 15.297L0.755912 15.2775L1.50566 15.258C1.48708 14.5451 1.51424 13.8321 1.58721 13.1188L0.8411 13.0425ZM0.755912 15.2775L0.00616622 15.297C0.0268124 16.0894 0.122105 16.8805 0.2914 17.6698L1.02472 17.5125L1.75804 17.3552C1.60775 16.6545 1.52384 15.9556 1.50566 15.258L0.755912 15.2775ZM1.02472 17.5125L0.2914 17.6698C0.42776 18.3055 0.421143 18.938 0.270764 19.5753L1.00072 19.7475L1.73067 19.9197C1.93189 19.067 1.94127 18.2095 1.75804 17.3552L1.02472 17.5125ZM1.00072 19.7475L0.270764 19.5753C0.0696716 20.4275 0.0594157 21.2845 0.240843 22.1384L0.974466 21.9825L1.70809 21.8266C1.57292 21.1905 1.58017 20.5575 1.73067 19.9197L1.00072 19.7475ZM0.974466 21.9825L0.240843 22.1384C0.380685 22.7965 0.400871 23.4511 0.302607 24.1063L1.04431 24.2175L1.78602 24.3287C1.91122 23.4939 1.88484 22.6585 1.70809 21.8266L0.974466 21.9825ZM1.04431 24.2175L0.302607 24.1063C0.185978 24.8839 0.121602 25.6622 0.109644 26.441L0.859556 26.4525L1.60947 26.464C1.62039 25.7528 1.67918 25.0411 1.78602 24.3287L1.04431 24.2175ZM0.859556 26.4525L0.109644 26.441C0.0980432 27.1965 0.102352 27.952 0.122572 28.7076L0.872303 28.6875L1.62203 28.6674C1.60238 27.933 1.59819 27.1985 1.60947 26.464L0.859556 26.4525ZM0.872303 28.6875L0.122572 28.7076C0.143231 29.4795 0.205474 30.2512 0.309218 31.0225L1.05252 30.9225L1.79583 30.8225C1.69915 30.1038 1.64125 29.3855 1.62203 28.6674L0.872303 28.6875ZM1.05252 30.9225L0.309218 31.0225C0.402517 31.7161 0.423105 32.4088 0.37121 33.1015L1.11911 33.1575L1.86702 33.2135C1.92676 32.4162 1.90295 31.6189 1.79583 30.8225L1.05252 30.9225ZM1.11911 33.1575L0.37121 33.1015C0.313832 33.8673 0.288595 34.6333 0.295514 35.3993L1.04548 35.3925L1.79545 35.3857C1.78891 34.6617 1.81276 33.9377 1.86702 33.2135L1.11911 33.1575ZM1.04548 35.3925L0.295514 35.3993C0.301893 36.1054 0.253667 36.812 0.150626 37.5194L0.892793 37.6275L1.63496 37.7356C1.74897 36.953 1.80253 36.1696 1.79545 35.3857L1.04548 35.3925ZM0.892793 37.6275L0.150626 37.5194C0.0294826 38.351 0.0539548 39.1833 0.223029 40.0124L0.957903 39.8625L1.69278 39.7126C1.55799 39.0517 1.53906 38.394 1.63496 37.7356L0.892793 37.6275ZM0.957903 39.8625L0.223029 40.0124C0.356725 40.668 0.368652 41.3203 0.259578 41.9741L0.999352 42.0975L1.73913 42.2209C1.87865 41.3847 1.86294 40.5471 1.69278 39.7126L0.957903 39.8625ZM0.999352 42.0975L0.259578 41.9741C0.122486 42.7958 0.114271 43.6192 0.235184 44.4416L0.977207 44.3325L1.71923 44.2234C1.62107 43.5558 1.62762 42.8892 1.73913 42.2209L0.999352 42.0975ZM0.977207 44.3325L0.235184 44.4416C0.337923 45.1404 0.374275 45.8382 0.344535 46.5355L1.09385 46.5675L1.84317 46.5995C1.87697 45.8069 1.83556 45.0146 1.71923 44.2234L0.977207 44.3325ZM1.09385 46.5675L0.344535 46.5355C0.313512 47.263 0.256962 47.9907 0.174863 48.7184L0.920136 48.8025L1.66541 48.8866C1.75139 48.1244 1.81066 47.362 1.84317 46.5995L1.09385 46.5675ZM0.920136 48.8025L0.174863 48.7184C0.0817503 49.5438 0.121624 50.3689 0.293183 51.1908L1.02736 51.0375L1.76153 50.8842C1.62204 50.2161 1.59044 49.5512 1.66541 48.8866L0.920136 48.8025ZM1.02736 51.0375L0.293183 51.1908C0.435904 51.8744 0.489807 52.5554 0.456008 53.2353L1.20508 53.2725L1.95416 53.3097C1.99444 52.4996 1.92986 51.6906 1.76153 50.8842L1.02736 51.0375ZM1.20508 53.2725L0.456008 53.2353C0.419698 53.9656 0.36189 54.696 0.282569 55.4265L1.02819 55.5075L1.7738 55.5885C1.85627 54.829 1.91639 54.0694 1.95416 53.3097L1.20508 53.2725ZM1.02819 55.5075L0.282569 55.4265C0.199666 56.1901 0.145494 56.9538 0.120076 57.7176L0.869661 57.7425L1.61925 57.7674C1.64341 57.0413 1.69492 56.3149 1.7738 55.5885L1.02819 55.5075ZM0.869661 57.7425L0.120076 57.7176C0.0951906 58.4654 0.074564 59.2132 0.0581964 59.9611L0.808017 59.9775L1.55784 59.9939C1.57408 59.2518 1.59455 58.5096 1.61925 57.7674L0.869661 57.7425ZM0.808017 59.9775L0.0581964 59.9611C0.0417878 60.7108 0.0324593 61.4605 0.0302111 62.2103L0.780208 62.2125L1.5302 62.2148C1.53242 61.4745 1.54164 60.7342 1.55784 59.9939L0.808017 59.9775ZM0.780208 62.2125L0.0302111 62.2103C0.0279507 62.964 0.0389223 63.7178 0.0631255 64.4716L0.812739 64.4475L1.56235 64.4234C1.53871 63.6872 1.528 62.951 1.5302 62.2148L0.780208 62.2125ZM0.812739 64.4475L0.0631255 64.4716C0.0875795 65.2332 0.149644 65.8644 0.264428 66.3352L0.993083 66.1575L1.72174 65.9798C1.64391 65.6606 1.58574 65.1519 1.56235 64.4234L0.812739 64.4475ZM0.993083 66.1575L0.264428 66.3352C0.311451 66.528 0.335473 66.6474 0.344343 66.7089C0.35 66.7481 0.34353 66.7245 0.346441 66.6717C0.347372 66.6548 0.351851 66.5526 0.4071 66.4308C0.437341 66.3642 0.498649 66.2563 0.616782 66.1619C0.747156 66.0576 0.909928 66 1.0785 66V66.75V67.5C1.4892 67.5 1.70265 67.2058 1.77306 67.0506C1.83391 66.9165 1.84187 66.7958 1.84417 66.7543C1.8498 66.6521 1.83757 66.5544 1.82899 66.4949C1.80939 66.3589 1.77102 66.182 1.72174 65.9798L0.993083 66.1575ZM1.0785 66.75L1.72433 66.3687L1.66529 66.2687L1.01946 66.65L0.373628 67.0313L0.432671 67.1313L1.0785 66.75ZM1.01946 66.65H0.269458V66.75H1.01946H1.76946V66.65H1.01946Z" fill="var(--stroke-0, #302013)"/>
</svg>
